# xmcd
#
# Track frame offsets:
#	150
#	13276
#	26781
#	38450
#	53492
#	67191
#	80045
#	91318
#	104928
#	119930
#	131753
#	145913
#	160349
#	173080
#	184847
#	198845
#	212418
#	226416
#	239747
#	254547
#
# Disc length: 3572 seconds
#
# Revision: 0
# Processed by: cddbd v1.5.2PL0 Copyright (c) Steve Scherf et al.
# Submitted via: EasyCDDAExtractor 16.0.8.2
#
DISCID=2e0df214
DTITLE=Μενιδιάτης Μιχάλης  - Αξέχαστες επιτυχίες-Μενιδιάτης Μ. 1
DYEAR=2000
DGENRE=Λαϊκή
TTITLE0=Ξημέρωσε καλή μου [Ν. Καρανικόλα-Α. Πάνου]
TTITLE1=Μην περιμένεις πια [Απ. Καλδάρα]
TTITLE2=Ένα τεφαρίκι [Μ. Μενιδιάτη-Μ. Θειόπουλου]
TTITLE3=Παράνομη αγάπη [Α. Πάνου]
TTITLE4=Όλα ρημάξανε [Η. Μεγαλούδη]
TTITLE5=Έφτά φορές τη μάζεψα [Α. Πάνου]
TTITLE6=Ευγνωμοσύνη σού χρωστώ [Κ.Παπαδόπουλου-Ηρ.Παπασιδέρη]
TTITLE7=Αγωνίες [Μ. Χιώτη]
TTITLE8=Όπου δής φωτιά να καίει [Α. Καλδάρα-Ε. Παπαγιαννοπούλου]
TTITLE9=Τώρα τέτοια θα λέμε [Κ. Σούκα-Λ. Τσώλη]
TTITLE10=Πετραδάκι-πετραδάκι [Α. Καλδάρα-Ε. Παπαγιαννοπούλου]
TTITLE11=Πήραν τα στήθια μου φωτιά [Ι. Καραμπεσίνη]
TTITLE12=Λίγο-λίγο θα με συνηθίσεις [Α. Καλδάρα]
TTITLE13=Τάμπα τούμπα [Ι. Καραμπεσίνη]
TTITLE14=Πικρά ποτήρια μού 'δωσες [Α.Κατινάρη-Ε.Παπαγιαννοπούλου]
TTITLE15=Μέσ' στους πονεμένους είμαι κι εγώ [Ν. Δαλέζιου]
TTITLE16=Περιφρόνα με γλυκειά μου [Α. Καλδάρα-Γ. Σαμολαδά]
TTITLE17=Την αγάπη μου μού την κλέψανε [Ι. Καραμπεσίνη]
TTITLE18=Στους πέντε δρόμους βρέθηκα [Α. Πάνου]
TTITLE19=Στο σπίτι μου χαράματα [Γ. Κοινούση]
EXTD=
EXTT0=
EXTT1=
EXTT2=
EXTT3=
EXTT4=
EXTT5=
EXTT6=
EXTT7=
EXTT8=
EXTT9=
EXTT10=
EXTT11=
EXTT12=
EXTT13=
EXTT14=
EXTT15=
EXTT16=
EXTT17=
EXTT18=
EXTT19=
PLAYORDER=
